<svg xmlns="http://www.w3.org/2000/svg" xmlns:xlink="http://www.w3.org/1999/xlink" version="1.1" id="Calque_1" x="0px" y="0px" width="100px" height="100px" viewBox="0 0 100 100" enable-background="new 0 0 100 100" xml:space="preserve">
<path fill="#000000" d="M96.824,49.614c0,0-14.807-26.345-47.113-26.345c-0.603,0-1.196,0.012-1.786,0.03l-2.82-13.258l-4.326,0.92  l2.691,12.648C15.567,26.657,3.176,49.421,3.176,49.421s2.574,5.073,8.056,10.842L8.975,49.66c-0.047-0.082-0.072-0.126-0.072-0.126  s0.899-1.515,2.759-3.73l3.957,18.601c1.625,1.385,3.418,2.746,5.381,4.035l-5.648-26.548c1.121-1.062,2.396-2.167,3.821-3.266  l6.976,32.789c1.574,0.787,3.236,1.516,4.982,2.162l-8.02-37.688c1.309-0.817,2.71-1.605,4.209-2.346l8.853,41.602  c1.519,0.387,3.093,0.707,4.725,0.957l-3.37-15.838c1.522,1.848,3.447,3.346,5.639,4.373l2.548,11.973  c1.056,0.062,2.13,0.1,3.229,0.1c0.44,0,0.876-0.008,1.312-0.02l-2.271-10.666c0.662,0.082,1.334,0.129,2.019,0.129  c0.844,0,1.673-0.064,2.48-0.189l5.106,23.996l4.324-0.92l-2.822-13.268C84.242,70.971,96.824,49.614,96.824,49.614z M34.429,45.703  l-2.972-13.969c1.396-0.533,2.866-1.017,4.401-1.44l1.941,9.125C36.245,41.21,35.077,43.349,34.429,45.703z M41.633,36.18  l-1.462-6.869c1.41-0.257,2.87-0.462,4.383-0.605l1.214,5.705C44.296,34.809,42.907,35.407,41.633,36.18z M50.171,33.85l-1.146-5.38  c0.24-0.003,0.479-0.008,0.722-0.008c1.056,0,2.088,0.032,3.103,0.089c10.366,1.643,18.293,10.619,18.293,21.448  c0,9-5.478,16.714-13.278,20.007l-1.132-5.326c5.559-2.551,9.42-8.164,9.42-14.682C66.152,41.134,59.014,33.941,50.171,33.85z   M69.188,67.406c4.094-4.641,6.58-10.73,6.58-17.408c0-6.988-2.726-13.335-7.164-18.05c15.316,6.024,22.494,17.74,22.494,17.74  S83.793,61.074,69.188,67.406z"/>
</svg>